<svg width="133" height="81" viewBox="0 0 133 81" fill="none" xmlns="http://www.w3.org/2000/svg">
<g clip-path="url(#clip0)">
<path d="M25.5997 66.1619L21.793 23.4653H63.6219L59.8112 66.155L42.6818 70.9038L25.5997 66.1619Z" fill="#E45126"/>
<path d="M42.7075 67.2739L56.5488 63.4367L59.8054 26.9563H42.7075V67.2739Z" fill="#F1682B"/>
<path d="M42.7075 42.792H35.7782L35.2995 37.4297H42.7075V32.1929H42.6894H29.5767L29.7021 33.5979L30.9891 48.0283H42.7075V42.792Z" fill="#EBEBEB"/>
<path d="M42.7076 56.3914L42.6847 56.398L36.8527 54.823L36.4797 50.6468H33.646H31.2231L31.9568 58.8688L42.6834 61.8466L42.7076 61.8397V56.3914Z" fill="#EBEBEB"/>
<path d="M25.6846 11.8621H28.3458V14.4912H30.7801V11.8621H33.4415V19.824H30.7803V17.158H28.346V19.824H25.6846V11.8621Z" fill="#020202"/>
<path d="M36.9409 14.5024H34.5981V11.8622H41.9461V14.5024H39.6023V19.8241H36.9411L36.9409 14.5024Z" fill="#020202"/>
<path d="M43.1122 11.8621H45.8871L47.5939 14.6597L49.2993 11.8621H52.075V19.824H49.4248V15.8776L47.5938 18.7084H47.5481L45.716 15.8776V19.824H43.1121L43.1122 11.8621Z" fill="#020202"/>
<path d="M53.3996 11.8621H56.0615V17.1922H59.8038V19.8238H53.3994L53.3996 11.8621Z" fill="#020202"/>
<path d="M42.6892 42.7919V48.0283H49.1374L48.5296 54.8193L42.6892 56.396V61.8443L53.4245 58.8688L53.5031 57.9841L54.7337 44.1981L54.8614 42.7919H53.4504H42.6892Z" fill="white"/>
<path d="M42.6892 32.1929V35.4453V37.4167V37.4297H55.3211H55.338L55.443 36.2526L55.6815 33.5979L55.8068 32.1929H42.6892Z" fill="white"/>
<path d="M102.608 14.0484H99.1355L102.746 17.966V19.8307H95.3093V17.6475H98.9193L95.3093 13.7297V11.8621H102.608V14.0484Z" fill="#151515"/>
<path d="M93.8357 14.0484H90.3638L93.9742 17.966V19.8307H86.5376V17.6475H90.1477L86.5376 13.7297V11.8621H93.8357V14.0484Z" fill="#151515"/>
<path d="M85.1494 14.1371H81.4032V17.5561H85.1494V19.8307H78.7407V11.8621H85.1494V14.1371Z" fill="#151515"/>
<path d="M73.6356 66.1652L69.8289 23.4687H111.658L107.847 66.1583L90.7177 70.9072L73.6356 66.1652Z" fill="#1673B6"/>
<path d="M90.7434 67.2775L104.585 63.44L107.841 26.9598H90.7434V67.2775Z" fill="#35A9DB"/>
<path d="M90.7434 42.4286H97.6728L98.1512 37.0663H90.7434V31.8295H90.7615H103.874L103.749 33.2345L102.462 47.6649H90.7434V42.4286Z" fill="white"/>
<path d="M90.7747 56.0281L90.752 56.0347L84.9197 54.4597L84.5469 50.2835H81.7131H79.2903L80.0239 58.5056L90.7505 61.4835L90.7747 61.4766V56.0281Z" fill="#EBEBEB"/>
<path d="M97.2278 47.4432L96.5971 54.4561L90.7566 56.0327V61.4808L101.492 58.5055L101.571 57.6209L102.482 47.4432H97.2278Z" fill="white"/>
<path d="M90.7615 31.8295V35.0819V37.0533V37.0663H78.1294H78.1126L78.0077 35.8892L77.7691 33.2345L77.6438 31.8295H90.7615Z" fill="#EBEBEB"/>
<path d="M90.7434 42.4292V45.6817V47.6529V47.6657H85.0019H84.9852L84.8803 46.4889L84.6417 43.8341L84.5164 42.4292H90.7434Z" fill="#EBEBEB"/>
</g>
<defs>
<clipPath id="clip0">
<rect width="133" height="81" fill="white"/>
</clipPath>
</defs>
</svg>
