<svg width="307" height="186" viewBox="0 0 307 186" fill="none" xmlns="http://www.w3.org/2000/svg">
<path d="M234.154 82.3749C230.215 82.3749 230.626 87.2164 230.463 92.3852H237.026C237.026 86.5591 237.026 82.3749 234.154 82.3749ZM230.463 100.837C230.463 105.513 232.76 106.415 236.616 106.415C241.047 106.415 247.036 105.102 249.334 104.692V116.016C247.529 116.673 242.032 118.23 236.616 118.23C226.852 118.23 214.953 116.671 214.953 95.8309C214.953 77.4512 224.308 73.1027 234.154 73.1027C244.246 73.1027 251.549 78.2719 251.549 95.6665V100.837H230.463ZM191.974 84.59C191.072 84.59 189.267 85.3285 188.282 85.9036V106.907C189.02 107.155 190.333 107.319 190.908 107.319C193.616 107.319 195.257 105.021 195.257 95.4214C195.256 85.6567 194.517 84.59 191.974 84.59ZM193.779 118.231C191.809 118.231 189.758 117.657 188.282 117.328V133H172.692V73.9234H185.327L187.625 76.631C190.004 74.498 193.369 73.1027 196.897 73.1027C203.296 73.1027 210.845 74.9075 210.845 95.4201C210.845 117.904 199.522 118.231 193.779 118.231ZM158.33 68.5903C153.982 68.5903 150.618 65.062 150.618 60.7951C150.618 56.5283 153.982 53 158.33 53C162.679 53 166.043 56.5283 166.043 60.7951C166.043 65.062 162.679 68.5903 158.33 68.5903ZM150.536 117.411V73.9234H166.125V117.411H150.536ZM141.096 86.1492C138.634 86.1492 136.747 87.1342 135.926 87.6263V117.411H120.337V73.9234H132.727L135.024 78.1076C135.926 75.4 138.388 73.1023 141.998 73.1023C144.46 73.1023 146.101 73.5947 146.838 74.0046V86.9681C145.28 86.5591 143.229 86.1492 141.096 86.1492ZM111.472 106.416C112.456 106.416 115.903 105.924 117.051 105.759V116.836C114.672 117.41 109.42 118.231 105.975 118.231C101.543 118.231 93.2566 117.739 93.2566 105.678V83.8519H87.5132V73.9234H93.2575L95.2266 64.0774L108.847 60.7956V73.9238H117.052L115.001 83.8524H108.847V102.888C108.846 105.841 109.749 106.416 111.472 106.416ZM71.1804 86.4774C71.1804 88.2005 72.3297 88.7747 75.0369 90.0053L76.6782 90.7442C80.5343 92.4673 85.8669 95.2571 85.8669 103.463C85.8669 116.59 76.1027 118.231 69.1287 118.231C64.6158 118.231 59.8569 117.165 56.6568 116.181V104.939C59.4462 105.679 64.2881 106.826 66.4206 106.826C68.8001 106.826 70.6053 106.499 70.6053 104.365C70.6053 102.724 69.4564 101.986 66.9131 100.838L64.9436 99.9347C61.2518 98.2112 56 95.2584 56 87.299C56 75.6473 65.1074 73.1045 72.7387 73.1045C78.4826 73.1045 82.2569 74.4168 84.2256 75.1557V86.0684C81.9278 85.3303 77.252 84.3453 74.4622 84.3453C72.5753 84.3444 71.1804 84.836 71.1804 86.4774Z" fill="#359AD5"/>
</svg>
